<?xml version="1.0" encoding="UTF-8"?>
<svg viewBox="0 0 500 500" xmlns="http://www.w3.org/2000/svg">
  <!-- Background Circle -->
  <circle cx="250" cy="250" r="230" fill="#ffffff" stroke="#e5e7eb" stroke-width="3"/>
  
  <!-- Rabbit Silhouette with Graph Ears -->
  <g>
    <!-- Body -->
    <ellipse cx="250" cy="280" rx="110" ry="120" fill="#ff6600"/>
    
    <!-- Head -->
    <circle cx="250" cy="185" r="70" fill="#ff6600"/>
    
    <!-- Left Ear (Graph Line) -->
    <path d="M215 150 L160 60 L120 90 L100 30" stroke="#0066ff" stroke-width="12" stroke-linecap="round" fill="none"/>
    <path d="M215 150 L160 60 L120 90 L100 30" stroke="#ff6600" stroke-width="22" stroke-linecap="round" opacity="0.6" fill="none"/>
    
    <!-- Right Ear (Graph Line) -->
    <path d="M285 150 L340 70 L380 120 L410 40" stroke="#0066ff" stroke-width="12" stroke-linecap="round" fill="none"/>
    <path d="M285 150 L340 70 L380 120 L410 40" stroke="#ff6600" stroke-width="22" stroke-linecap="round" opacity="0.6" fill="none"/>
    
    <!-- Eyes -->
    <circle cx="225" cy="175" r="10" fill="#ffffff"/>
    <circle cx="275" cy="175" r="10" fill="#ffffff"/>
    <circle cx="225" cy="175" r="5" fill="#333333"/>
    <circle cx="275" cy="175" r="5" fill="#333333"/>
    
    <!-- Nose -->
    <ellipse cx="250" cy="200" rx="10" ry="7" fill="#333333"/>
    
    <!-- Dashboard Lines -->
    <rect x="190" y="230" width="120" height="10" rx="5" fill="#ffffff"/>
    <rect x="190" y="255" width="90" height="10" rx="5" fill="#ffffff"/>
    <rect x="190" y="280" width="70" height="10" rx="5" fill="#ffffff"/>
    
    <!-- Data Points -->
    <circle cx="160" cy="60" r="8" fill="#0066ff"/>
    <circle cx="120" cy="90" r="8" fill="#0066ff"/>
    <circle cx="100" cy="30" r="8" fill="#0066ff"/>
    <circle cx="340" cy="70" r="8" fill="#0066ff"/>
    <circle cx="380" cy="120" r="8" fill="#0066ff"/>
    <circle cx="410" cy="40" r="8" fill="#0066ff"/>
  </g>
  
  <!-- Text -->
  <text x="250" y="380" font-family="Arial, sans-serif" font-size="45" text-anchor="middle" fill="#333333">
    <tspan font-weight="600">rmq</tspan><tspan font-weight="300">-board</tspan>
  </text>

</svg>